<?xml version="1.0" encoding="UTF-8"?><svg xmlns="http://www.w3.org/2000/svg" viewBox="0 0 317.97 70.17"><defs><style>.d{fill:#cd141c;}</style></defs><g id="a"/><g id="b"><g id="c"><g><path class="d" d="M77.13,56.13h26.28c2.23,0,3.31-1.01,3.31-2.66s-1.08-2.59-3.38-2.59h-11.95c-8.42,0-15.27-5.76-15.27-15.91,0-11.67,7.99-15.91,16.06-15.91h29.81v13.32h-25.71c-1.94,0-3.31,.72-3.31,2.52s1.37,2.66,3.31,2.66h11.23c9.65,0,16.06,5.69,16.06,15.84,0,9.58-7.2,16.06-16.56,16.06h-30.1l.22-13.32Z"/><path class="d" d="M180.31,35.04c0,8.86-8.14,15.84-17.14,15.84h-17.35v18.58h-16.85V19.05h34.92c10.22,0,16.42,5.9,16.42,15.99Zm-16.85-.14c0-1.73-1.15-2.52-2.74-2.52h-14.91v5.18h14.91c1.58,0,2.74-1.08,2.74-2.66Z"/><path class="d" d="M184.99,19.05h16.85v50.4h-16.85V19.05Z"/><path class="d" d="M233.44,50.81h-7.92v18.65h-16.85V19.05h35.64c10.22,0,16.42,5.9,16.42,15.99,0,6.7-4.46,12.1-10.44,14.47l12.1,19.95h-18.29l-10.66-18.65Zm-7.92-13.18h15.62c1.58,0,2.74-1.08,2.74-2.74,0-1.8-1.15-2.59-2.74-2.59h-15.62v5.33Z"/><path class="d" d="M265.98,44.18c0-14.33,11.67-25.92,25.99-25.92s25.99,11.59,25.99,25.92-11.67,25.99-25.99,25.99-25.99-11.59-25.99-25.99Zm35.28,0c0-5.11-4.18-9.29-9.29-9.29s-9.29,4.18-9.29,9.29,4.18,9.36,9.29,9.36,9.29-4.18,9.29-9.36Z"/><path class="d" d="M62.27,0h-14.69s-11.02,1.93-16.09,11.99L0,69.42H21.35L47.05,17.74l7.34,51.68h21.16L62.27,0Z"/></g></g></g></svg>